<?xml version="1.0" encoding="utf-8"?>
<!-- Generator: Adobe Illustrator 15.0.0, SVG Export Plug-In . SVG Version: 6.00 Build 0)  -->
<!DOCTYPE svg PUBLIC "-//W3C//DTD SVG 1.1//EN" "http://www.w3.org/Graphics/SVG/1.1/DTD/svg11.dtd">
<svg version="1.1" id="Layer_1" xmlns="http://www.w3.org/2000/svg" xmlns:xlink="http://www.w3.org/1999/xlink" x="0px" y="0px"
	 width="103px" height="63px" viewBox="0 0 103 63" enable-background="new 0 0 103 63" xml:space="preserve">
<g>
	<path fill="#333333" d="M103,63H0V0h103V63z M5,58h93V5H5V58z"/>
</g>
<rect x="39" y="44" fill="#333333" width="24" height="5"/>
<g>
	<path fill="#333333" d="M26.733,50H13V13h12.582c6.109,0,10.894,4.472,10.894,10.5c0,2.2-0.746,4.343-2.074,6.22
		c2.35,2.069,3.87,5.33,3.87,8.693C38.271,44.912,33.311,50,26.733,50z M20,43h6.733c2.672,0,4.538-2.06,4.538-4.65
		c0-1.972-1.738-4.302-3.896-4.302L20,33.918V43z M20,27h6.25c2.333,0,3.226-1.842,3.226-3.5c0-2.208-1.602-3.5-3.894-3.5H20V27z"/>
</g>
<g>
	<path fill="#333333" d="M79.732,50H66V13h12.582c6.107,0,10.895,4.472,10.895,10.5c0,2.2-0.746,4.343-2.074,6.22
		c2.351,2.069,3.869,5.33,3.869,8.693C91.271,44.912,86.311,50,79.732,50z M73,43h6.732c2.672,0,4.539-2.06,4.539-4.65
		c0-1.972-1.738-4.302-3.896-4.302L73,33.918V43z M73,27h6.25c2.333,0,3.227-1.842,3.227-3.5c0-2.208-1.603-3.5-3.895-3.5H73V27z"/>
</g>
<path fill="#333333" d="M58.873,35.117l5.365-5.44l-3.795-3.789l-5.418,5.493l-2.999-2.909c3.284-2.938,3.312-6.396,2.148-8.713
	c-1.697-3.364-5.816-4.724-9.185-3.029c-1.855,0.935-3.203,2.852-3.521,5.011c-0.318,2.174,0.44,4.341,2.08,5.976
	c-2.718,2.454-3.698,5.316-2.919,8.532c0.706,2.909,2.982,5.246,5.792,5.971c1.749,0.45,5.228,0.869,8.775-3.001L59.107,43H63
	v-5.684l-1.982,0.019L58.873,35.117z M48.072,21.029c0.896,0,1.622,0.727,1.622,1.622c0,1.238-1.622,2.359-1.622,2.359
	s-1.622-1.003-1.622-2.359C46.45,21.756,47.176,21.029,48.072,21.029z M51.222,35.373c-0.868,0.948-2.175,2.009-3.475,1.673
	c-0.99-0.256-1.709-1.225-1.911-2.051c-0.217-0.899-0.287-1.982,1.577-3.528l3.911,3.796C51.289,35.3,51.257,35.337,51.222,35.373z"
	/>
</svg>
